<svg width="120" height="120" viewBox="0 0 120 120" xmlns="http://www.w3.org/2000/svg">
  <g fill="none" stroke="#ffffff" stroke-width="1.1" stroke-linejoin="round">
    <path d="M 60.0,34.0 L 64.59,48.91 L 78.38,41.62 L 71.09,55.41 L 86.0,60.0 L 71.09,64.59 L 78.38,78.38 L 64.59,71.09 L 60.0,86.0 L 55.41,71.09 L 41.62,78.38 L 48.91,64.59 L 34.0,60.0 L 48.91,55.41 L 41.62,41.62 L 55.41,48.91 Z"/>
    <path d="M 0.0,-26.0 L 4.59,-11.09 L 18.38,-18.38 L 11.09,-4.59 L 26.0,0.0 L 11.09,4.59 L 18.38,18.38 L 4.59,11.09 L 0.0,26.0 L -4.59,11.09 L -18.38,18.38 L -11.09,4.59 L -26.0,0.0 L -11.09,-4.59 L -18.38,-18.38 L -4.59,-11.09 Z"/>
    <path d="M 120.0,-26.0 L 124.59,-11.09 L 138.38,-18.38 L 131.09,-4.59 L 146.0,0.0 L 131.09,4.59 L 138.38,18.38 L 124.59,11.09 L 120.0,26.0 L 115.41,11.09 L 101.62,18.38 L 108.91,4.59 L 94.0,0.0 L 108.91,-4.59 L 101.62,-18.38 L 115.41,-11.09 Z"/>
    <path d="M 0.0,94.0 L 4.59,108.91 L 18.38,101.62 L 11.09,115.41 L 26.0,120.0 L 11.09,124.59 L 18.38,138.38 L 4.59,131.09 L 0.0,146.0 L -4.59,131.09 L -18.38,138.38 L -11.09,124.59 L -26.0,120.0 L -11.09,115.41 L -18.38,101.62 L -4.59,108.91 Z"/>
    <path d="M 120.0,94.0 L 124.59,108.91 L 138.38,101.62 L 131.09,115.41 L 146.0,120.0 L 131.09,124.59 L 138.38,138.38 L 124.59,131.09 L 120.0,146.0 L 115.41,131.09 L 101.62,138.38 L 108.91,124.59 L 94.0,120.0 L 108.91,115.41 L 101.62,101.62 L 115.41,108.91 Z"/>
  </g>
</svg>
